<svg width="18" height="18" viewBox="0 0 18 18" fill="none" xmlns="http://www.w3.org/2000/svg">
<path fill-rule="evenodd" clip-rule="evenodd" d="M0 5.4C0 2.41766 2.41766 0 5.4 0H12.6C15.5823 0 18 2.41766 18 5.4V12.6C18 15.5823 15.5823 18 12.6 18H5.4C2.41766 18 0 15.5823 0 12.6V5.4ZM12.6 10.8C12.6 12.7882 10.9882 14.4 9 14.4C7.01178 14.4 5.4 12.7882 5.4 10.8C5.4 8.81178 7.01178 7.2 9 7.2C10.9882 7.2 12.6 8.81178 12.6 10.8ZM13.6386 6.43793C14.3842 6.43793 14.9886 5.83352 14.9886 5.08793C14.9886 4.34235 14.3842 3.73793 13.6386 3.73793C12.893 3.73793 12.2886 4.34235 12.2886 5.08793C12.2886 5.83352 12.893 6.43793 13.6386 6.43793Z" fill="#9FACBA"/>
</svg>
