<svg width="60" height="26" viewBox="0 0 60 26" fill="none" xmlns="http://www.w3.org/2000/svg">
<path d="M49.2985 16.4172V26H52.5359V16.4172H53.1833L56.4207 13.5652H49.1219L45.8846 16.4172H49.2985ZM25.8467 26H30.6144L35.7353 21.4938V26L41.2093 21.2656V26H44.6233V13.5652L39.9144 17.9003V13.5652L25.8467 26Z" fill="white"/>
<path fill-rule="evenodd" clip-rule="evenodd" d="M0 26H8.21772C17.9104 17.3506 27.6031 8.70119 37.3485 0H29.0781C19.3854 8.70119 9.69271 17.3506 0 26Z" fill="#AFCA0B"/>
<path fill-rule="evenodd" clip-rule="evenodd" d="M41.3519 0.570662L40.7725 0.0527344H48.9902L49.5696 0.570662H41.3519ZM42.8269 1.91728L42.0894 1.24398H50.3071L51.0446 1.91728H42.8269ZM44.3545 3.2121L43.6171 2.5388H51.8348L52.5723 3.2121H44.3545ZM45.8295 4.55871L45.092 3.8854H53.3098L54.0472 4.55871H45.8295ZM47.3045 5.85354L46.567 5.18022H54.7847L55.5222 5.85354H47.3045ZM48.7795 7.20015L48.042 6.52683H56.2597L56.9972 7.20015H48.7795ZM50.3071 8.54675L49.5696 7.87345H57.7874L58.5249 8.54675H50.3071ZM51.7821 9.89337L51.0446 9.22007H59.2623L59.9998 9.89337H51.7821Z" fill="#AFCA0B"/>
<path fill-rule="evenodd" clip-rule="evenodd" d="M11.6426 26H19.8603C29.553 17.3506 39.2457 8.70119 48.9911 0H40.7734C31.0807 8.70119 21.3353 17.3506 11.6426 26Z" fill="#AFCA0B"/>
</svg>
