<svg width="218" height="46" viewBox="0 0 218 46" fill="none" xmlns="http://www.w3.org/2000/svg">
<path d="M168.109 22.6334V38.0278H173.153V22.6334H174.162L179.206 18.0518H167.833L162.789 22.6334H168.109ZM214.24 27.2151L218 23.8247H209.838L206.077 27.2151V38.0278H209.838V27.2151H214.24ZM204.335 29.1394C204.335 27.49 203.693 26.1155 202.501 25.1075C201.4 24.1912 200.3 23.733 198.924 23.733H197.181L193.421 27.1235V37.9362H197.181V27.1235H198.924C199.474 27.1235 199.933 27.3067 200.3 27.6733C200.666 28.0398 200.941 28.498 200.941 29.1394C200.941 29.6892 200.758 30.239 200.391 30.6055C200.024 30.9721 199.566 31.1553 199.016 31.1553H198.19V34.5458H199.016C200.299 34.5458 201.492 34.0876 202.592 33.1713C203.693 32.2549 204.335 30.8804 204.335 29.1394ZM187.643 30.8804C187.643 32.0717 187.368 32.988 186.91 33.6294C186.359 34.3625 185.626 34.8207 184.525 34.8207C183.516 34.8207 182.691 34.4541 182.14 33.6294C181.682 32.988 181.407 32.0717 181.407 30.8804C181.407 29.6892 181.59 28.7729 182.049 28.1314C182.599 27.3984 183.333 26.9402 184.433 26.9402C185.442 26.9402 186.268 27.3067 186.818 28.1314C187.368 28.8645 187.643 29.7808 187.643 30.8804ZM184.525 23.5498C182.507 23.5498 180.948 24.0079 179.664 25.1992C178.38 26.5737 177.647 28.5896 177.647 30.7888C177.647 33.0796 178.289 34.9123 179.664 36.1952C180.948 37.478 182.507 38.1195 184.525 38.1195C186.543 38.1195 188.102 37.478 189.386 36.1952C190.761 34.8207 191.403 33.0796 191.403 30.7888C191.403 28.498 190.761 26.6653 189.477 25.3824C188.193 24.1912 186.543 23.5498 184.525 23.5498ZM151.233 38.0278V23.733H147.473L136.835 33.2629V38.3028L147.382 28.7729V37.9362H151.233V38.0278ZM135.276 38.0278V23.733H131.515L120.968 33.2629V38.3028L131.515 28.7729V37.9362H135.276V38.0278ZM115.374 23.733L104.735 33.3546V38.3944L115.282 28.8645V32.6215H112.256L108.404 36.1036H115.191V38.0278H118.951V23.733H115.374ZM97.9487 27.2151V38.0278H101.709V27.2151H102.534L106.294 23.8247H97.6735L93.9133 27.2151H97.9487ZM81.8073 38.0278V29.1394V27.1235L85.5675 23.733H95.3807L91.6205 27.1235H85.6592V29.1394H91.6205V32.5298H85.6592V34.5458H91.6205V37.9362H81.8073V38.0278ZM49.9832 38.0278H57.4118L65.3908 30.7888V38.0278L73.92 30.4223V38.0278H79.2394V18.0518L71.9024 25.0159V18.0518L49.9832 38.0278Z" fill="#00499A"/>
<path fill-rule="evenodd" clip-rule="evenodd" d="M0 46H14.3071C31.1822 30.6972 48.0572 15.3944 65.024 0H50.6252C33.7501 15.3944 16.8751 30.6972 0 46Z" fill="#AFCA0B"/>
<path fill-rule="evenodd" clip-rule="evenodd" d="M71.9939 1.00825L70.9851 0.0919189H85.2922L86.301 1.00825H71.9939ZM74.5619 3.39073L73.2779 2.1995H87.585L88.869 3.39073H74.5619ZM77.2215 5.68156L75.9376 4.49034H90.2447L91.5286 5.68156H77.2215ZM79.7895 8.06404L78.5055 6.87279H92.8126L94.0966 8.06404H79.7895ZM82.3574 10.3549L81.0735 9.16362H95.3805L96.6645 10.3549H82.3574ZM84.9254 12.7373L83.6414 11.5461H97.9485L99.2325 12.7373H84.9254ZM87.585 15.1198L86.301 13.9286H100.608L101.892 15.1198H87.585ZM90.153 17.5023L88.869 16.311H103.176L104.46 17.5023H90.153Z" fill="#AFCA0B"/>
<path fill-rule="evenodd" clip-rule="evenodd" d="M20.2684 46H34.5755C51.4506 30.6972 68.3256 15.3944 85.2924 0H70.9853C54.1103 15.3944 37.1435 30.6972 20.2684 46Z" fill="#AFCA0B"/>
</svg>
