<svg width="15" height="16" viewBox="0 0 15 16" fill="none" xmlns="http://www.w3.org/2000/svg">
<path opacity="0.25" fill-rule="evenodd" clip-rule="evenodd" d="M2 6.44435C2 3.98295 3.97901 2 6.405 2C8.83099 2 10.81 3.98295 10.81 6.44435C10.81 8.90574 8.83099 10.8887 6.405 10.8887C3.97901 10.8887 2 8.90574 2 6.44435ZM6.405 0C2.86079 0 0 2.89208 0 6.44435C0 9.99661 2.86079 12.8887 6.405 12.8887C7.8439 12.8887 9.17016 12.412 10.2381 11.608L13.32 14.7124C13.7038 15.099 14.326 15.0989 14.7098 14.7124C15.0935 14.3258 15.0935 13.699 14.7098 13.3125L11.6143 10.1944C12.3672 9.13716 12.81 7.84184 12.81 6.44435C12.81 2.89208 9.94921 0 6.405 0Z" fill="white"/>
</svg>
