<svg width="13" height="13" viewBox="0 0 13 13" fill="none" xmlns="http://www.w3.org/2000/svg">
<path fill-rule="evenodd" clip-rule="evenodd" d="M2 5.5C2 3.567 3.567 2 5.5 2C7.433 2 9 3.567 9 5.5C9 7.433 7.433 9 5.5 9C3.567 9 2 7.433 2 5.5ZM5.5 0C2.46243 0 0 2.46243 0 5.5C0 8.53757 2.46243 11 5.5 11C6.74091 11 7.88584 10.589 8.80612 9.89581L10.7542 11.8581C11.0581 12.1642 11.5508 12.1642 11.8547 11.8581C12.1586 11.552 12.1586 11.0557 11.8547 10.7496L9.9085 8.78919C10.5941 7.87183 11 6.73332 11 5.5C11 2.46243 8.53757 0 5.5 0Z" fill="#D3D3D3"/>
</svg>
