<svg width="25" height="29" viewBox="0 0 25 29" fill="none" xmlns="http://www.w3.org/2000/svg">
<path d="M1.7857 0H16.958L25 8.1309V27.1875C25 28.1889 24.2 29 23.2143 29H1.7857C0.799958 29 0 28.1889 0 27.1875V1.81248C0 0.811112 0.80005 0 1.7857 0Z" fill="#E2574C"/>
<path d="M24.9737 8.15613H18.7496C17.7638 8.15613 16.9639 7.34417 16.9639 6.34364V0.0180054L24.9737 8.15613Z" fill="#B53629"/>
<path d="M18.3026 13.741C18.6018 13.741 18.7482 13.4764 18.7482 13.2199C18.7482 12.9543 18.5955 12.6979 18.3026 12.6979H16.5991C16.266 12.6979 16.0803 12.9779 16.0803 13.2869V17.5363C16.0803 17.9152 16.2928 18.1254 16.5803 18.1254C16.8661 18.1254 17.0795 17.9152 17.0795 17.5363V16.37H18.1098C18.4295 16.37 18.5893 16.1045 18.5893 15.8408C18.5893 15.5825 18.4295 15.326 18.1098 15.326H17.0795V13.741H18.3026ZM12.5446 12.6979H11.2981C10.9597 12.6979 10.7195 12.9335 10.7195 13.2833V17.54C10.7195 17.974 11.0651 18.11 11.3124 18.11H12.6204C14.1686 18.11 15.1909 17.076 15.1909 15.48C15.1901 13.7926 14.2277 12.6979 12.5446 12.6979ZM12.6045 17.0606H11.8446V13.7474H12.5294C13.5661 13.7474 14.0169 14.4533 14.0169 15.4275C14.0169 16.3393 13.574 17.0606 12.6045 17.0606ZM8.03835 12.6979H6.80354C6.45442 12.6979 6.25977 12.9316 6.25977 13.2869V17.5363C6.25977 17.9152 6.48297 18.1254 6.78294 18.1254C7.08291 18.1254 7.30611 17.9152 7.30611 17.5363V16.2956H8.0802C9.03555 16.2956 9.82396 15.6087 9.82396 14.504C9.82405 13.4229 9.06336 12.6979 8.03835 12.6979ZM8.01784 15.2989H7.30621V13.6957H8.01784C8.45713 13.6957 8.7366 14.0437 8.7366 14.4977C8.73567 14.9509 8.45713 15.2989 8.01784 15.2989Z" fill="white"/>
</svg>
