<svg width="20" height="20" viewBox="0 0 20 20" fill="none" xmlns="http://www.w3.org/2000/svg">
<path fill-rule="evenodd" clip-rule="evenodd" d="M7.3586 10.9333H14.3801C15.0869 10.9333 15.709 10.5506 16.0294 9.97196L19.215 4.25063C19.4695 3.80263 19.2998 3.23329 18.8474 2.98129C18.7314 2.91903 18.6072 2.88319 18.4827 2.87187C18.4827 2.86502 5.9439 2.86808 4.80129 2.86808L4.00337 1.19863C3.85258 0.871959 3.51328 0.666626 3.15514 0.666626H1.60947C1.09111 0.666626 0.666992 1.08663 0.666992 1.59996C0.666992 2.11329 1.09111 2.53329 1.60947 2.53329H2.55195L5.94488 9.61729L4.67253 11.8946C3.98452 13.1453 4.88931 14.6666 6.32188 14.6666H16.6892C17.2075 14.6666 17.6316 14.2466 17.6316 13.7333C17.6316 13.22 17.2075 12.8 16.6892 12.8H6.32188L7.3586 10.9333ZM5.69346 4.73475H16.7992L14.3801 9.06663H7.76387L5.69346 4.73475Z" fill="#B0CA1F"/>
<path d="M4.44634 17.4666C4.44634 16.44 5.28515 15.6 6.32188 15.6C7.35861 15.6 8.20684 16.44 8.20684 17.4666C8.20684 18.4933 7.35861 19.3333 6.32188 19.3333C5.28515 19.3333 4.44634 18.4933 4.44634 17.4666Z" fill="#B0CA1F"/>
<path d="M13.8711 17.4666C13.8711 16.44 14.71 15.6 15.7467 15.6C16.7834 15.6 17.6316 16.44 17.6316 17.4666C17.6316 18.4933 16.7834 19.3333 15.7467 19.3333C14.71 19.3333 13.8711 18.4933 13.8711 17.4666Z" fill="#B0CA1F"/>
</svg>
