<svg width="16" height="16" viewBox="0 0 16 16" fill="none" xmlns="http://www.w3.org/2000/svg">
<path fill-rule="evenodd" clip-rule="evenodd" d="M5.92438 8.73329H11.4413C11.9967 8.73329 12.4854 8.43263 12.7372 7.97796L15.2401 3.48263C15.4401 3.13063 15.3068 2.68329 14.9513 2.48529C14.8601 2.43637 14.7626 2.40821 14.6647 2.39932C14.6647 2.39393 4.81283 2.39634 3.91506 2.39634L3.28813 1.08463C3.16965 0.827959 2.90306 0.666626 2.62166 0.666626H1.40721C0.999921 0.666626 0.666687 0.996626 0.666687 1.39996C0.666687 1.80329 0.999921 2.13329 1.40721 2.13329H2.14773L4.8136 7.69929L3.8139 9.48863C3.27332 10.4713 3.98422 11.6666 5.10981 11.6666H13.2555C13.6628 11.6666 13.9961 11.3366 13.9961 10.9333C13.9961 10.53 13.6628 10.2 13.2555 10.2H5.10981L5.92438 8.73329ZM4.61605 3.86301H13.342L11.4413 7.26663H6.24281L4.61605 3.86301Z" fill="#B0CA1F"/>
<path d="M3.63617 13.8666C3.63617 13.06 4.29524 12.4 5.10981 12.4C5.92438 12.4 6.59085 13.06 6.59085 13.8666C6.59085 14.6733 5.92438 15.3333 5.10981 15.3333C4.29524 15.3333 3.63617 14.6733 3.63617 13.8666Z" fill="#B0CA1F"/>
<path d="M11.0414 13.8666C11.0414 13.06 11.7004 12.4 12.515 12.4C13.3296 12.4 13.9961 13.06 13.9961 13.8666C13.9961 14.6733 13.3296 15.3333 12.515 15.3333C11.7004 15.3333 11.0414 14.6733 11.0414 13.8666Z" fill="#B0CA1F"/>
</svg>
