<svg width="97" height="16" viewBox="0 0 97 16" fill="none" xmlns="http://www.w3.org/2000/svg">
<path d="M8.565 3.075C7.815 2.685 7.025 2.49 6.195 2.49C4.995 2.49 4.035 2.85 3.315 3.57C2.605 4.28 2.25 5.36 2.25 6.81C2.25 8.23 2.59 9.295 3.27 10.005C3.95 10.715 4.875 11.07 6.045 11.07C6.985 11.07 7.865 10.865 8.685 10.455C8.695 10.645 8.66 10.87 8.58 11.13C8.51 11.39 8.42 11.595 8.31 11.745C7.53 12.145 6.64 12.345 5.64 12.345C4.14 12.345 2.965 11.865 2.115 10.905C1.265 9.945 0.84 8.615 0.84 6.915C0.84 5.105 1.31 3.705 2.25 2.715C3.19 1.725 4.42 1.23 5.94 1.23C6.89 1.23 7.66 1.4 8.25 1.74C8.36 1.9 8.445 2.11 8.505 2.37C8.565 2.63 8.585 2.865 8.565 3.075ZM11.7904 5.745H11.8504C12.2404 4.895 13.0004 4.47 14.1304 4.47C14.9904 4.47 15.7054 4.76 16.2754 5.34C16.8554 5.92 17.1454 6.845 17.1454 8.115C17.1454 9.375 16.8404 10.39 16.2304 11.16C15.6204 11.92 14.7004 12.3 13.4704 12.3C12.8004 12.3 12.2904 12.21 11.9404 12.03V15.42C11.8104 15.49 11.5954 15.525 11.2954 15.525C10.9854 15.525 10.7654 15.49 10.6354 15.42V4.86C10.9154 4.72 11.2704 4.65 11.7004 4.65L11.7904 5.745ZM11.9404 6.705V10.89C12.3204 11.05 12.7504 11.13 13.2304 11.13C14.1204 11.13 14.7704 10.87 15.1804 10.35C15.6004 9.83 15.8104 9.125 15.8104 8.235C15.8104 7.395 15.6354 6.76 15.2854 6.33C14.9354 5.9 14.4304 5.685 13.7704 5.685C13.0204 5.685 12.4104 6.025 11.9404 6.705ZM23.1061 11.415H23.0461C22.5961 12.005 21.8911 12.3 20.9311 12.3C20.2211 12.3 19.6411 12.12 19.1911 11.76C18.7411 11.39 18.5161 10.82 18.5161 10.05C18.5161 9.21 18.7911 8.59 19.3411 8.19C19.8911 7.78 20.6161 7.575 21.5161 7.575C22.1261 7.575 22.6261 7.655 23.0161 7.815V7.425C23.0161 6.805 22.8861 6.355 22.6261 6.075C22.3661 5.795 21.9461 5.655 21.3661 5.655C20.5461 5.655 19.7811 5.875 19.0711 6.315C19.0111 6.135 18.9961 5.915 19.0261 5.655C19.0561 5.395 19.1211 5.18 19.2211 5.01C19.8311 4.65 20.6261 4.47 21.6061 4.47C22.5261 4.47 23.2061 4.69 23.6461 5.13C24.0861 5.57 24.3061 6.29 24.3061 7.29V10.56C24.3061 10.93 24.4811 11.115 24.8311 11.115C25.1011 11.115 25.3361 11.045 25.5361 10.905C25.5761 11.375 25.4911 11.75 25.2811 12.03C24.9711 12.21 24.6411 12.3 24.2911 12.3C23.6311 12.3 23.2361 12.005 23.1061 11.415ZM23.0161 10.335V8.865C22.5961 8.715 22.1611 8.64 21.7111 8.64C21.1011 8.64 20.6311 8.765 20.3011 9.015C19.9811 9.255 19.8211 9.58 19.8211 9.99C19.8211 10.36 19.9511 10.64 20.2111 10.83C20.4811 11.02 20.8311 11.115 21.2611 11.115C22.0711 11.115 22.6561 10.855 23.0161 10.335ZM31.3784 8.175V8.235C32.4484 8.475 32.9834 9.065 32.9834 10.005C32.9834 10.735 32.6784 11.27 32.0684 11.61C31.4584 11.95 30.6484 12.12 29.6384 12.12C28.6884 12.12 27.7984 12.075 26.9684 11.985V4.935C27.6684 4.745 28.4634 4.65 29.3534 4.65C30.3334 4.65 31.1134 4.81 31.6934 5.13C32.2734 5.45 32.5634 5.945 32.5634 6.615C32.5634 7.015 32.4534 7.355 32.2334 7.635C32.0234 7.905 31.7384 8.085 31.3784 8.175ZM28.2434 8.805V11.025C28.5734 11.055 29.0134 11.07 29.5634 11.07C30.9634 11.07 31.6634 10.69 31.6634 9.93C31.6634 9.18 31.0084 8.805 29.6984 8.805H28.2434ZM28.2434 5.76V7.77H29.6234C30.7334 7.77 31.2884 7.43 31.2884 6.75C31.2884 6.03 30.6134 5.67 29.2634 5.67C28.9034 5.67 28.5634 5.7 28.2434 5.76ZM39.9464 11.925V8.79H36.2714V11.925C36.1414 11.995 35.9264 12.03 35.6264 12.03C35.3164 12.03 35.0964 11.995 34.9664 11.925V4.845C35.0964 4.775 35.3164 4.74 35.6264 4.74C35.9264 4.74 36.1414 4.775 36.2714 4.845V7.65H39.9464V4.845C40.0764 4.775 40.2964 4.74 40.6064 4.74C40.9064 4.74 41.1214 4.775 41.2514 4.845V11.925C41.1214 11.995 40.9064 12.03 40.6064 12.03C40.2964 12.03 40.0764 11.995 39.9464 11.925ZM49.5144 8.79H44.5794C44.6394 10.34 45.5394 11.115 47.2794 11.115C48.1494 11.115 48.9044 10.925 49.5444 10.545C49.5644 10.755 49.5394 10.98 49.4694 11.22C49.4094 11.46 49.3244 11.64 49.2144 11.76C48.6244 12.12 47.8794 12.3 46.9794 12.3C45.7894 12.3 44.8644 11.96 44.2044 11.28C43.5544 10.59 43.2294 9.65 43.2294 8.46C43.2294 7.28 43.5494 6.32 44.1894 5.58C44.8394 4.84 45.7094 4.47 46.7994 4.47C47.7594 4.47 48.4794 4.75 48.9594 5.31C49.4494 5.87 49.6944 6.625 49.6944 7.575C49.6944 8.025 49.6344 8.43 49.5144 8.79ZM44.5944 7.695H48.4044C48.4644 7.115 48.3694 6.62 48.1194 6.21C47.8694 5.8 47.4094 5.595 46.7394 5.595C46.1094 5.595 45.6044 5.785 45.2244 6.165C44.8544 6.545 44.6444 7.055 44.5944 7.695ZM56.6749 11.925V8.79H52.9999V11.925C52.8699 11.995 52.6549 12.03 52.3549 12.03C52.0449 12.03 51.8249 11.995 51.6949 11.925V4.845C51.8249 4.775 52.0449 4.74 52.3549 4.74C52.6549 4.74 52.8699 4.775 52.9999 4.845V7.65H56.6749V4.845C56.8049 4.775 57.0249 4.74 57.3349 4.74C57.6349 4.74 57.8499 4.775 57.9799 4.845V11.925C57.8499 11.995 57.6349 12.03 57.3349 12.03C57.0249 12.03 56.8049 11.995 56.6749 11.925ZM65.7929 11.925V5.82H65.7329C65.4729 6.5 65.1529 7.145 64.7729 7.755L62.0729 12.075C61.4029 12.075 60.8879 12 60.5279 11.85V4.845C60.6479 4.775 60.8479 4.74 61.1279 4.74C61.3979 4.74 61.5929 4.775 61.7129 4.845V10.785H61.7729C62.0529 10.075 62.3779 9.425 62.7479 8.835L65.3579 4.68C66.0479 4.68 66.5879 4.765 66.9779 4.935V11.925C66.8579 11.995 66.6579 12.03 66.3779 12.03C66.1079 12.03 65.9129 11.995 65.7929 11.925ZM75.2371 8.79H70.3021C70.3621 10.34 71.2621 11.115 73.0021 11.115C73.8721 11.115 74.6271 10.925 75.2671 10.545C75.2871 10.755 75.2621 10.98 75.1921 11.22C75.1321 11.46 75.0471 11.64 74.9371 11.76C74.3471 12.12 73.6021 12.3 72.7021 12.3C71.5121 12.3 70.5871 11.96 69.9271 11.28C69.2771 10.59 68.9521 9.65 68.9521 8.46C68.9521 7.28 69.2721 6.32 69.9121 5.58C70.5621 4.84 71.4321 4.47 72.5221 4.47C73.4821 4.47 74.2021 4.75 74.6821 5.31C75.1721 5.87 75.4171 6.625 75.4171 7.575C75.4171 8.025 75.3571 8.43 75.2371 8.79ZM70.3171 7.695H74.1271C74.1871 7.115 74.0921 6.62 73.8421 6.21C73.5921 5.8 73.1321 5.595 72.4621 5.595C71.8321 5.595 71.3271 5.785 70.9471 6.165C70.5771 6.545 70.3671 7.055 70.3171 7.695Z" fill="white"/>
<path d="M82.6119 15.285C80.9919 12.975 80.1819 10.455 80.1819 7.725C80.1819 6.445 80.3819 5.16 80.7819 3.87C81.1919 2.58 81.7769 1.39 82.5369 0.3C82.9369 0.39 83.2469 0.615 83.4669 0.975C82.1469 3.015 81.4869 5.26 81.4869 7.71C81.4869 10.22 82.2119 12.535 83.6619 14.655C83.4519 14.985 83.1019 15.195 82.6119 15.285ZM88.3948 3.735C89.5548 3.735 90.4798 4.105 91.1698 4.845C91.8598 5.575 92.2048 6.605 92.2048 7.935C92.2048 9.305 91.8598 10.375 91.1698 11.145C90.4898 11.915 89.5648 12.3 88.3948 12.3C87.1648 12.3 86.2148 11.925 85.5448 11.175C84.8848 10.425 84.5548 9.345 84.5548 7.935C84.5548 6.635 84.9048 5.61 85.6048 4.86C86.3148 4.11 87.2448 3.735 88.3948 3.735ZM85.9198 7.935C85.9198 8.935 86.1298 9.715 86.5498 10.275C86.9798 10.825 87.5948 11.1 88.3948 11.1C89.1748 11.1 89.7748 10.82 90.1948 10.26C90.6248 9.69 90.8398 8.915 90.8398 7.935C90.8398 7.015 90.6198 6.285 90.1798 5.745C89.7398 5.195 89.1448 4.92 88.3948 4.92C87.5948 4.92 86.9798 5.19 86.5498 5.73C86.1298 6.27 85.9198 7.005 85.9198 7.935ZM93.1379 14.655C94.5679 12.505 95.2829 10.2 95.2829 7.74C95.2829 5.27 94.6329 3.03 93.3329 1.02C93.4129 0.859999 93.5429 0.71 93.7229 0.57C93.9029 0.43 94.0929 0.335 94.2929 0.285C95.8229 2.485 96.5879 4.945 96.5879 7.665C96.5879 10.395 95.7879 12.95 94.1879 15.33C93.6779 15.23 93.3279 15.005 93.1379 14.655Z" fill="#449FFA"/>
</svg>
