<svg width="23" height="20" viewBox="0 0 23 20" fill="none" xmlns="http://www.w3.org/2000/svg">
<path d="M17.9688 15.7143C18.2682 15.7143 18.549 15.7701 18.811 15.8817C19.0731 15.9933 19.3014 16.1458 19.4961 16.3393C19.6908 16.5327 19.8442 16.7597 19.9565 17.0201C20.0688 17.2805 20.125 17.5595 20.125 17.8571C20.125 18.1548 20.0688 18.4338 19.9565 18.6942C19.8442 18.9546 19.6908 19.1815 19.4961 19.375C19.3014 19.5685 19.0731 19.721 18.811 19.8326C18.549 19.9442 18.2682 20 17.9688 20C17.6693 20 17.3885 19.9442 17.1265 19.8326C16.8644 19.721 16.6361 19.5685 16.4414 19.375C16.2467 19.1815 16.0933 18.9546 15.981 18.6942C15.8687 18.4338 15.8125 18.1548 15.8125 17.8571C15.8125 17.6265 15.8537 17.3884 15.936 17.1429H9.93896C10.0213 17.3884 10.0625 17.6265 10.0625 17.8571C10.0625 18.1548 10.0063 18.4338 9.89404 18.6942C9.78174 18.9546 9.62825 19.1815 9.43359 19.375C9.23893 19.5685 9.01058 19.721 8.74854 19.8326C8.48649 19.9442 8.20573 20 7.90625 20C7.60677 20 7.32601 19.9442 7.06396 19.8326C6.80192 19.721 6.57357 19.5685 6.37891 19.375C6.18424 19.1815 6.03076 18.9546 5.91846 18.6942C5.80615 18.4338 5.75 18.1548 5.75 17.8571C5.75 17.4479 5.85856 17.0685 6.07568 16.7188C6.30029 16.369 6.59977 16.1049 6.97412 15.9263L2.12256 1.42857H0V0H3.15576L4.11035 2.85714H23L19.6533 12.8571H7.46826L8.42285 15.7143H17.9688ZM4.59326 4.28571L6.98535 11.4286H18.6089L21.001 4.28571H4.59326ZM8.625 17.8571C8.625 17.6637 8.55387 17.4963 8.41162 17.3549C8.26937 17.2135 8.10091 17.1429 7.90625 17.1429C7.71159 17.1429 7.54313 17.2135 7.40088 17.3549C7.25863 17.4963 7.1875 17.6637 7.1875 17.8571C7.1875 18.0506 7.25863 18.218 7.40088 18.3594C7.54313 18.5007 7.71159 18.5714 7.90625 18.5714C8.10091 18.5714 8.26937 18.5007 8.41162 18.3594C8.55387 18.218 8.625 18.0506 8.625 17.8571ZM17.9688 18.5714C18.1634 18.5714 18.3319 18.5007 18.4741 18.3594C18.6164 18.218 18.6875 18.0506 18.6875 17.8571C18.6875 17.6637 18.6164 17.4963 18.4741 17.3549C18.3319 17.2135 18.1634 17.1429 17.9688 17.1429C17.7741 17.1429 17.6056 17.2135 17.4634 17.3549C17.3211 17.4963 17.25 17.6637 17.25 17.8571C17.25 18.0506 17.3211 18.218 17.4634 18.3594C17.6056 18.5007 17.7741 18.5714 17.9688 18.5714Z" fill="white"/>
</svg>
