<svg width="23" height="23" viewBox="0 0 23 23" fill="none" xmlns="http://www.w3.org/2000/svg">
<path d="M22.8021 18.9909L18.916 15.1048L20.8219 13.199C20.987 13.0338 21.0549 12.795 21.0012 12.5677C20.9475 12.3404 20.78 12.1571 20.5585 12.0832L9.12328 8.27148C8.8812 8.19076 8.61418 8.25378 8.43373 8.43428C8.25323 8.61477 8.19021 8.8817 8.27093 9.12383L12.0827 20.5591C12.1566 20.7806 12.3399 20.9482 12.5671 21.0018C12.7944 21.0556 13.0333 20.9876 13.1984 20.8225L15.1043 18.9166L18.9904 22.8027C19.122 22.9342 19.2944 23.0001 19.4668 23.0001C19.6393 23.0001 19.8118 22.9343 19.9433 22.8027L22.8021 19.9438C23.0653 19.6807 23.0653 19.2541 22.8021 18.9909ZM19.4668 21.3733L15.5807 17.4872C15.3176 17.224 14.8909 17.224 14.6278 17.4872L13.0164 19.0986L9.97558 9.97618L19.098 13.017L17.4866 14.6284C17.2237 14.8913 17.2235 15.3182 17.4866 15.5813L21.3727 19.4674L19.4668 21.3733Z" fill="white"/>
<path d="M8.75977 5.39062C9.1319 5.39062 9.43359 5.08893 9.43359 4.71679V0.673828C9.43359 0.301695 9.1319 0 8.75977 0C8.38763 0 8.08594 0.301695 8.08594 0.673828V4.71679C8.08594 5.08893 8.38763 5.39062 8.75977 5.39062Z" fill="white"/>
<path d="M3.51846 2.56565C3.25535 2.3025 2.82868 2.3025 2.56553 2.56565C2.30238 2.8288 2.30238 3.25543 2.56553 3.51858L5.42435 6.3774C5.68746 6.64056 6.11417 6.64056 6.37728 6.3774C6.64043 6.11425 6.64043 5.68763 6.37728 5.42448L3.51846 2.56565Z" fill="white"/>
<path d="M5.42435 11.1421L2.56553 14.001C2.30238 14.2641 2.30238 14.6907 2.56553 14.9539C2.82864 15.217 3.25535 15.217 3.51846 14.9539L6.37728 12.0951C6.64043 11.8319 6.64043 11.4053 6.37728 11.1421C6.11413 10.879 5.68746 10.879 5.42435 11.1421Z" fill="white"/>
<path d="M12.0956 6.3774L14.9544 3.51858C15.2176 3.25543 15.2176 2.8288 14.9544 2.56565C14.6913 2.3025 14.2647 2.3025 14.0015 2.56565L11.1427 5.42448C10.8795 5.68763 10.8795 6.11425 11.1427 6.3774C11.4058 6.64056 11.8325 6.64056 12.0956 6.3774Z" fill="white"/>
<path d="M5.39062 8.75977C5.39062 8.38763 5.08893 8.08594 4.71679 8.08594H0.673828C0.301695 8.08594 0 8.38763 0 8.75977C0 9.1319 0.301695 9.43359 0.673828 9.43359H4.71679C5.08893 9.43359 5.39062 9.1319 5.39062 8.75977Z" fill="white"/>
</svg>
