<svg width="25" height="25" viewBox="0 0 25 25" fill="none" xmlns="http://www.w3.org/2000/svg">
<path d="M24.7855 20.6423L20.5614 16.4182L22.6331 14.3467C22.8126 14.1672 22.8863 13.9076 22.828 13.6605C22.7696 13.4134 22.5876 13.2142 22.3468 13.1339L9.9172 8.99071C9.65407 8.90296 9.36383 8.97147 9.16769 9.16766C8.9715 9.36385 8.90299 9.65399 8.99074 9.91717L13.1339 22.3468C13.2143 22.5876 13.4135 22.7697 13.6605 22.828C13.9075 22.8865 14.1672 22.8126 14.3467 22.6331L16.4183 20.5615L20.6423 24.7855C20.7854 24.9285 20.9728 25 21.1602 25C21.3476 25 21.5351 24.9285 21.6781 24.7855L24.7855 21.6781C25.0715 21.392 25.0715 20.9283 24.7855 20.6423ZM21.1602 23.2318L16.9361 19.0078C16.6502 18.7218 16.1863 18.7218 15.9004 19.0078L14.1488 20.7593L10.8436 10.8436L20.7593 14.1489L19.0078 15.9004C18.722 16.1861 18.7217 16.6502 19.0078 16.9362L23.2318 21.1602L21.1602 23.2318Z" fill="#B0CA1F"/>
<path d="M9.52148 5.85937C9.92598 5.85937 10.2539 5.53144 10.2539 5.12695V0.732422C10.2539 0.32793 9.92598 0 9.52148 0C9.11699 0 8.78906 0.32793 8.78906 0.732422V5.12695C8.78906 5.53144 9.11699 5.85937 9.52148 5.85937Z" fill="#B0CA1F"/>
<path d="M3.82454 2.78878C3.53855 2.50274 3.07478 2.50274 2.78874 2.78878C2.50271 3.07481 2.50271 3.53853 2.78874 3.82457L5.89616 6.93199C6.18215 7.21802 6.64597 7.21802 6.93196 6.93199C7.21799 6.64595 7.21799 6.18223 6.93196 5.8962L3.82454 2.78878Z" fill="#B0CA1F"/>
<path d="M5.89616 12.111L2.78874 15.2184C2.50271 15.5044 2.50271 15.9682 2.78874 16.2542C3.07473 16.5402 3.53855 16.5402 3.82454 16.2542L6.93196 13.1468C7.21799 12.8607 7.21799 12.397 6.93196 12.111C6.64592 11.8249 6.18215 11.8249 5.89616 12.111Z" fill="#B0CA1F"/>
<path d="M13.1468 6.93199L16.2542 3.82457C16.5403 3.53853 16.5403 3.07481 16.2542 2.78878C15.9682 2.50274 15.5045 2.50274 15.2184 2.78878L12.111 5.8962C11.825 6.18223 11.825 6.64595 12.111 6.93199C12.397 7.21802 12.8608 7.21802 13.1468 6.93199Z" fill="#B0CA1F"/>
<path d="M5.85937 9.52148C5.85937 9.11699 5.53144 8.78906 5.12695 8.78906H0.732422C0.32793 8.78906 0 9.11699 0 9.52148C0 9.92598 0.32793 10.2539 0.732422 10.2539H5.12695C5.53144 10.2539 5.85937 9.92598 5.85937 9.52148Z" fill="#B0CA1F"/>
</svg>
