<svg width="24" height="24" viewBox="0 0 24 24" fill="none" xmlns="http://www.w3.org/2000/svg">
<rect width="24" height="24" fill="white" fill-opacity="0.01"/>
<path d="M19 7C19 8.10455 18.1046 9 17 9C16.4293 9 15.9144 8.76093 15.55 8.3775L9.93604 11.4964C9.95636 11.5748 9.97205 11.655 9.98279 11.7368C9.99414 11.8229 10 11.9108 10 12C10 12.174 9.97778 12.3427 9.93604 12.5036L15.55 15.6225C15.9144 15.2391 16.4293 15 17 15C18.1046 15 19 15.8954 19 17C19 18.1046 18.1046 19 17 19C15.8954 19 15 18.1046 15 17C15 16.826 15.0222 16.6573 15.064 16.4964L9.45001 13.3775C9.08563 13.7609 8.57074 14 8 14C6.89545 14 6 13.1046 6 12C6 10.8954 6.89545 10 8 10C8.57074 10 9.08563 10.2391 9.45001 10.6225L15.064 7.5036C15.0222 7.34271 15 7.17395 15 7C15 5.89545 15.8954 5 17 5C18.1046 5 19 5.89545 19 7Z" fill="#C4C4C4"/>
</svg>
