<svg width="14" height="14" viewBox="0 0 14 14" fill="none" xmlns="http://www.w3.org/2000/svg">
<path fill-rule="evenodd" clip-rule="evenodd" d="M0 4.2C0 1.8804 1.8804 0 4.2 0H9.8C12.1196 0 14 1.8804 14 4.2V9.8C14 12.1196 12.1196 14 9.8 14H4.2C1.8804 14 0 12.1196 0 9.8V4.2ZM9.8 8.4C9.8 9.9464 8.5464 11.2 7 11.2C5.4536 11.2 4.2 9.9464 4.2 8.4C4.2 6.8536 5.4536 5.6 7 5.6C8.5464 5.6 9.8 6.8536 9.8 8.4ZM10.6078 5.00728C11.1877 5.00728 11.6578 4.53718 11.6578 3.95728C11.6578 3.37738 11.1877 2.90728 10.6078 2.90728C10.0279 2.90728 9.55782 3.37738 9.55782 3.95728C9.55782 4.53718 10.0279 5.00728 10.6078 5.00728Z" fill="#7D8491"/>
</svg>
