<svg width="167" height="16" viewBox="0 0 167 16" fill="none" xmlns="http://www.w3.org/2000/svg">
<path fill-rule="evenodd" clip-rule="evenodd" d="M162.926 15.6756L162.023 13.2503H156.693L155.703 15.6756H151.673L157.31 1.23364H161.473L167 15.6756H162.926ZM159.358 5.7159L157.751 10.3927H161.01L159.358 5.7159ZM142.448 7.3612L138.902 15.6756H137.383L133.991 7.3612L132.736 15.6756H128.948L131.436 1.23364H135.202L138.175 8.94188L141.324 1.23364H145.134L147.336 15.6756H143.526L142.448 7.3612ZM119.876 10.8903H117.476V15.6756H113.666V1.23364H119.744C121.021 1.23364 122.343 1.47211 123.466 2.53322C124.611 3.61565 124.831 4.82798 124.831 6.0403C124.831 7.18801 124.677 8.53023 123.532 9.63464C122.386 10.7391 121.021 10.8903 119.876 10.8903ZM120.405 4.78468C119.965 4.32973 119.26 4.26511 118.775 4.26511H117.476V7.85945H118.753C119.15 7.85945 119.898 7.81615 120.361 7.4045C120.823 7.01482 120.846 6.42998 120.846 6.0836C120.846 5.69392 120.801 5.17435 120.405 4.78468ZM99.8381 16C97.6578 16 95.544 15.2639 94.0465 13.8565C92.4826 12.3843 91.7345 10.3707 91.7345 8.46561C91.7345 6.53855 92.4826 4.50291 94.0465 3.05279C95.544 1.6453 97.6578 0.909242 99.8381 0.909242C102.018 0.909242 104.133 1.6453 105.63 3.05279C107.194 4.50291 107.942 6.53855 107.942 8.46561C107.942 10.3707 107.194 12.3843 105.63 13.8565C104.133 15.2639 102.018 16 99.8381 16ZM102.789 5.69392C101.974 4.93655 100.852 4.54621 99.8381 4.54621C98.7812 4.54621 97.6578 4.91457 96.8656 5.69392C96.0728 6.45196 95.6981 7.51307 95.6981 8.53023C95.6981 9.80783 96.3144 10.6958 96.8656 11.2153C97.5702 11.8861 98.5612 12.363 99.8381 12.363C101.137 12.363 102.107 11.9081 102.789 11.2366C103.472 10.5659 103.978 9.57003 103.978 8.46561C103.978 7.33988 103.472 6.34338 102.789 5.69392ZM79.8888 13.6619V15.6756H76.0569V13.6619C73.282 13.6619 71.8063 12.9472 70.8376 12.016C69.5384 10.7391 69.2737 9.26628 69.2737 7.94604C69.2737 6.73306 69.4943 5.02315 70.8594 3.74555C72.071 2.59784 74.0307 2.09958 76.0569 2.09958V0H79.8888V2.09958C81.9143 2.09958 83.8747 2.59784 85.0857 3.74555C86.4507 5.02315 86.6713 6.73306 86.6713 7.94604C86.6713 9.26628 86.4066 10.7391 85.1074 12.016C84.1387 12.9472 82.663 13.6619 79.8888 13.6619ZM76.3427 5.00117H76.1669C75.5282 5.00117 74.6471 5.06644 73.9649 5.67261C73.5243 6.06228 73.1055 6.77635 73.1055 7.83747C73.1055 8.6388 73.392 9.52606 73.9649 10.0676C74.603 10.6738 75.3958 10.7604 76.1445 10.7604H76.3427V5.00117ZM81.9808 5.67261C81.298 5.06644 80.4169 5.00117 79.7781 5.00117H79.6023V10.7604H79.8005C80.5492 10.7604 81.3421 10.6738 81.9808 10.0676C82.5531 9.52606 82.8395 8.6388 82.8395 7.83747C82.8395 6.77635 82.4214 6.06228 81.9808 5.67261ZM61.8096 15.6756H58.0002V4.41632H54.8729V1.23364H64.9368V4.41632H61.8096V15.6756ZM46.9466 13.2503H41.6173L40.6262 15.6756H36.5962L42.2343 1.23364H46.396L51.9235 15.6756H47.8494L46.9466 13.2503ZM44.2823 5.7159L42.6742 10.3927H45.9338L44.2823 5.7159ZM25.4333 6.89359L21.9097 15.6836H17.7479L23.9135 1.2423H26.8866L33.1411 15.6836H29.0011L25.4333 6.89359ZM9.07285 4.4383H3.80943V15.6756H0V1.23364H12.9047V15.6756H9.07285V4.4383Z" fill="white"/>
</svg>
