<svg width="12" height="12" viewBox="0 0 12 12" fill="none" xmlns="http://www.w3.org/2000/svg">
<path fill-rule="evenodd" clip-rule="evenodd" d="M2 4.97869C2 3.32682 3.3275 2.00012 4.94981 2.00012C6.57212 2.00012 7.89962 3.32682 7.89962 4.97869C7.89962 6.63055 6.57212 7.95725 4.94981 7.95725C3.3275 7.95725 2 6.63055 2 4.97869ZM4.94981 0.00012207C2.20928 0.00012207 0 2.23595 0 4.97869C0 7.72142 2.20928 9.95725 4.94981 9.95725C6.07577 9.95725 7.11206 9.57983 7.94229 8.94491L10.0031 11.0207C10.2835 11.3032 10.7382 11.3032 11.0187 11.0207C11.2991 10.7382 11.2991 10.2802 11.0187 9.9977L8.94888 7.91281C9.54704 7.08915 9.89962 6.07436 9.89962 4.97869C9.89962 2.23595 7.69034 0.00012207 4.94981 0.00012207Z" fill="#49505E"/>
</svg>
