<svg width="12" height="12" viewBox="0 0 12 12" fill="none" xmlns="http://www.w3.org/2000/svg">
<path fill-rule="evenodd" clip-rule="evenodd" d="M2 4.97856C2 3.3267 3.3275 2 4.94981 2C6.57212 2 7.89962 3.3267 7.89962 4.97856C7.89962 6.63043 6.57212 7.95713 4.94981 7.95713C3.3275 7.95713 2 6.63043 2 4.97856ZM4.94981 0C2.20928 0 0 2.23583 0 4.97856C0 7.7213 2.20928 9.95713 4.94981 9.95713C6.07577 9.95713 7.11206 9.57971 7.94229 8.94479L10.0031 11.0206C10.2835 11.3031 10.7382 11.3031 11.0187 11.0206C11.2991 10.7381 11.2991 10.2801 11.0187 9.99757L8.94888 7.91269C9.54704 7.08902 9.89962 6.07424 9.89962 4.97856C9.89962 2.23583 7.69034 0 4.94981 0Z" fill="#B0CA1F"/>
</svg>
